<?xml version="1.0" standalone="no"?>
<!DOCTYPE svg PUBLIC "-//W3C//DTD SVG 20010904//EN"
 "http://www.w3.org/TR/2001/REC-SVG-20010904/DTD/svg10.dtd">
<svg version="1.0" xmlns="http://www.w3.org/2000/svg"
 width="260.000000pt" height="260.000000pt" viewBox="0 0 260.000000 260.000000"
 preserveAspectRatio="xMidYMid meet">
<metadata>
Created by potrace 1.11, written by Peter Selinger 2001-2013
</metadata>
<g transform="translate(0.000000,260.000000) scale(0.100000,-0.100000)"
fill="#000000" stroke="none">
<path d="M290 2325 c0 -12 -14 -15 -70 -15 -56 0 -70 -3 -70 -15 0 -8 -4 -15
-10 -15 -6 0 -10 -27 -10 -60 0 -57 1 -60 25 -60 16 0 25 -6 25 -15 0 -8 9
-15 20 -15 11 0 20 -7 20 -15 0 -8 5 -15 10 -15 6 0 10 -13 10 -30 0 -16 5
-30 10 -30 6 0 10 -32 10 -75 0 -60 3 -75 15 -75 13 0 15 -24 15 -160 0 -136
-2 -160 -15 -160 -13 0 -15 -52 -15 -410 0 -267 -3 -410 -10 -410 -5 0 -10
-13 -10 -30 0 -16 -4 -30 -10 -30 -5 0 -10 -7 -10 -15 0 -10 -11 -15 -35 -15
-24 0 -35 -5 -35 -15 0 -10 -10 -15 -30 -15 -20 0 -30 -5 -30 -15 0 -9 -9 -15
-25 -15 -24 0 -25 -3 -25 -60 0 -57 1 -60 25 -60 16 0 25 -6 25 -15 0 -10 10
-15 30 -15 20 0 30 5 30 15 0 13 27 15 180 15 153 0 180 2 180 15 0 8 9 15 20
15 11 0 20 7 20 15 0 8 5 15 10 15 6 0 10 27 10 60 0 33 -4 60 -10 60 -5 0
-10 7 -10 15 0 8 -9 15 -20 15 -11 0 -20 7 -20 15 0 9 -9 15 -25 15 -16 0 -25
6 -25 15 0 8 -9 15 -20 15 -11 0 -20 5 -20 11 0 14 -25 39 -39 39 -7 0 -11 54
-11 165 0 140 2 165 15 165 12 0 15 15 15 75 0 43 4 75 10 75 6 0 10 5 10 11
0 33 28 39 175 39 159 0 175 -5 175 -54 0 -14 5 -26 10 -26 6 0 10 -7 10 -15
0 -8 7 -15 15 -15 13 0 15 -20 15 -120 0 -73 4 -120 10 -120 6 0 10 -13 10
-30 0 -16 -4 -30 -10 -30 -5 0 -10 -13 -10 -30 0 -16 5 -30 10 -30 6 0 10 -35
10 -85 0 -50 4 -85 10 -85 6 0 10 -20 10 -45 0 -25 5 -45 10 -45 6 0 10 -13
10 -30 0 -16 5 -30 10 -30 6 0 10 -7 10 -15 0 -10 11 -15 35 -15 24 0 35 -5
35 -15 0 -11 12 -15 45 -15 33 0 45 -4 45 -15 0 -8 5 -15 10 -15 6 0 10 7 10
15 0 11 12 15 45 15 43 0 45 1 45 30 0 23 4 30 20 30 17 0 20 7 20 45 0 25 5
45 10 45 6 0 10 31 10 73 0 61 -3 75 -20 87 -11 8 -20 20 -20 27 0 8 -13 13
-35 13 -24 0 -35 -5 -35 -15 0 -8 -4 -15 -10 -15 -5 0 -10 -11 -10 -25 0 -14
-4 -25 -10 -25 -5 0 -10 -7 -10 -15 0 -8 -9 -15 -20 -15 -11 0 -20 7 -20 15 0
8 -7 15 -15 15 -9 0 -15 9 -15 25 0 14 -4 25 -10 25 -5 0 -10 20 -10 45 0 25
-4 45 -10 45 -6 0 -10 52 -10 135 0 83 -4 135 -10 135 -5 0 -10 20 -10 45 0
25 -4 45 -10 45 -5 0 -10 14 -10 30 0 20 -5 30 -15 30 -11 0 -15 11 -15 40 0
29 4 40 15 40 8 0 15 7 15 15 0 8 5 15 10 15 6 0 10 7 10 15 0 8 5 15 10 15 6
0 10 14 10 30 0 17 5 30 10 30 6 0 10 7 10 15 0 8 5 15 10 15 6 0 10 7 10 15
0 9 9 15 25 15 21 0 25 5 25 30 0 17 5 30 10 30 6 0 10 45 10 115 0 70 -4 115
-10 115 -5 0 -10 7 -10 15 0 8 5 15 10 15 6 0 10 14 10 30 0 17 -4 30 -10 30
-5 0 -10 7 -10 15 0 8 -4 15 -10 15 -6 0 -10 27 -10 60 0 47 -3 60 -15 60 -8
0 -15 7 -15 15 0 8 -4 15 -10 15 -5 0 -10 14 -10 30 0 17 -4 30 -10 30 -5 0
-10 14 -10 30 0 17 -4 30 -10 30 -5 0 -10 7 -10 15 0 9 -9 15 -25 15 -16 0
-25 6 -25 15 0 12 -13 15 -55 15 -42 0 -55 3 -55 15 0 12 -18 15 -100 15 -82
0 -100 -3 -100 -15 0 -12 -14 -15 -65 -15 -51 0 -65 3 -65 15 0 12 -16 15 -85
15 -69 0 -85 -3 -85 -15z m500 -210 c0 -9 9 -15 25 -15 16 0 25 -6 25 -15 0
-8 5 -15 10 -15 6 0 10 -7 10 -15 0 -8 9 -15 20 -15 11 0 20 -7 20 -15 0 -8 7
-15 15 -15 10 0 15 -10 15 -30 0 -16 5 -30 10 -30 6 0 10 -30 10 -70 0 -40 -4
-70 -10 -70 -5 0 -10 -13 -10 -30 0 -20 -5 -30 -15 -30 -8 0 -15 -7 -15 -15 0
-8 -4 -15 -10 -15 -5 0 -10 -13 -10 -30 0 -16 -4 -30 -10 -30 -5 0 -10 -7 -10
-15 0 -8 -4 -15 -10 -15 -5 0 -10 -7 -10 -15 0 -12 -13 -15 -55 -15 -42 0 -55
-3 -55 -15 0 -10 -11 -15 -35 -15 -24 0 -35 -5 -35 -15 0 -11 -12 -15 -45 -15
-33 0 -45 4 -45 15 0 12 -13 15 -55 15 -42 0 -55 -3 -55 -15 0 -8 -4 -15 -10
-15 -5 0 -10 7 -10 15 0 8 -9 15 -20 15 -11 0 -20 7 -20 15 0 8 -7 15 -15 15
-12 0 -15 15 -15 75 0 60 3 75 15 75 13 0 15 24 15 160 0 100 4 160 10 160 6
0 10 7 10 15 0 8 9 15 20 15 11 0 20 7 20 15 0 13 25 15 165 15 140 0 165 -2
165 -15z"/>
<path d="M1560 2325 c0 -12 -15 -15 -75 -15 -60 0 -75 -3 -75 -15 0 -8 -4 -15
-10 -15 -6 0 -10 -27 -10 -60 l0 -60 30 0 c20 0 30 -5 30 -15 0 -9 9 -15 25
-15 21 0 25 -5 25 -30 0 -16 5 -30 10 -30 6 0 10 -20 10 -45 0 -25 5 -45 10
-45 6 0 10 -90 10 -250 0 -160 -4 -250 -10 -250 -6 0 -10 -90 -10 -250 0 -160
4 -250 10 -250 6 0 10 -20 10 -45 0 -25 -4 -45 -10 -45 -6 0 -10 -35 -10 -85
0 -50 -4 -85 -10 -85 -5 0 -10 -13 -10 -30 0 -28 -3 -30 -35 -30 -24 0 -35 -5
-35 -15 0 -11 -12 -15 -45 -15 -33 0 -45 -4 -45 -15 0 -8 -4 -15 -10 -15 -5 0
-10 -7 -10 -15 0 -8 -4 -15 -10 -15 -5 0 -10 -20 -10 -45 0 -45 0 -45 35 -45
24 0 35 -5 35 -15 0 -8 9 -15 20 -15 11 0 20 7 20 15 0 13 26 15 175 15 149 0
175 2 175 15 0 9 9 15 25 15 16 0 25 6 25 15 0 8 5 15 10 15 6 0 10 7 10 15 0
8 5 15 10 15 6 0 10 14 10 30 0 17 -4 30 -10 30 -5 0 -10 14 -10 30 0 25 -4
30 -25 30 -16 0 -25 6 -25 15 0 10 -10 15 -30 15 -20 0 -30 5 -30 15 0 9 -9
15 -25 15 -16 0 -25 6 -25 15 0 8 -4 15 -10 15 -5 0 -10 11 -10 25 0 14 -4 25
-10 25 -6 0 -10 37 -10 90 0 53 4 90 10 90 6 0 10 52 10 135 0 83 4 135 10
135 6 0 10 7 10 15 0 8 7 15 15 15 8 0 15 5 15 10 0 6 57 10 151 10 151 0 179
-6 179 -39 0 -6 5 -11 10 -11 6 0 10 -13 10 -30 0 -16 5 -30 10 -30 6 0 10
-13 10 -30 0 -16 5 -30 10 -30 6 0 10 -70 10 -190 0 -162 2 -190 15 -190 12 0
15 -15 15 -75 0 -43 4 -75 10 -75 6 0 10 -13 10 -30 0 -16 5 -30 10 -30 6 0
10 -7 10 -15 0 -8 5 -15 10 -15 6 0 10 -7 10 -15 0 -9 9 -15 25 -15 16 0 25
-6 25 -15 0 -12 17 -15 95 -15 l95 0 0 30 c0 25 4 30 25 30 23 0 25 4 25 45 0
25 5 45 10 45 6 0 10 35 10 85 0 50 -4 85 -10 85 -5 0 -10 7 -10 15 0 11 -12
15 -45 15 -33 0 -45 -4 -45 -15 0 -8 -4 -15 -10 -15 -5 0 -10 -18 -10 -40 0
-39 -1 -40 -35 -40 -32 0 -35 2 -35 30 0 17 -4 30 -10 30 -5 0 -10 11 -10 25
0 14 -4 25 -10 25 -6 0 -10 27 -10 60 0 33 -4 60 -10 60 -6 0 -10 47 -10 120
0 100 -2 120 -15 120 -11 0 -15 12 -15 45 0 25 -4 45 -10 45 -5 0 -10 11 -10
25 0 14 -4 25 -10 25 -5 0 -10 7 -10 15 0 8 5 15 10 15 6 0 10 14 10 30 0 17
5 30 10 30 6 0 10 7 10 15 0 8 7 15 15 15 8 0 15 7 15 15 0 8 5 15 10 15 6 0
10 14 10 30 0 17 5 30 10 30 6 0 10 7 10 15 0 8 9 15 20 15 11 0 20 7 20 15 0
8 7 15 15 15 13 0 15 28 15 190 0 162 -2 190 -15 190 -11 0 -15 12 -15 45 0
25 -4 45 -10 45 -5 0 -10 7 -10 15 0 8 -4 15 -10 15 -5 0 -10 7 -10 15 0 8 -4
15 -10 15 -5 0 -10 20 -10 45 0 25 -4 45 -10 45 -5 0 -10 7 -10 15 0 8 -7 15
-15 15 -8 0 -15 7 -15 15 0 8 -9 15 -20 15 -11 0 -20 7 -20 15 0 12 -13 15
-55 15 -42 0 -55 3 -55 15 0 12 -18 15 -100 15 -82 0 -100 -3 -100 -15 0 -12
-13 -15 -55 -15 -42 0 -55 3 -55 15 0 12 -17 15 -90 15 -73 0 -90 -3 -90 -15z
m510 -210 c0 -9 9 -15 25 -15 16 0 25 -6 25 -15 0 -8 5 -15 10 -15 6 0 10 -7
10 -15 0 -8 5 -15 10 -15 6 0 10 -7 10 -15 0 -8 5 -15 10 -15 6 0 10 -7 10
-15 0 -8 5 -15 10 -15 6 0 10 -20 10 -45 0 -33 4 -45 15 -45 8 0 15 -7 15 -15
0 -8 -7 -15 -15 -15 -9 0 -15 -9 -15 -25 0 -14 -4 -25 -10 -25 -5 0 -10 -13
-10 -30 0 -16 -4 -30 -10 -30 -5 0 -10 -13 -10 -30 0 -16 -4 -30 -10 -30 -5 0
-10 -7 -10 -15 0 -8 -4 -15 -10 -15 -5 0 -10 -7 -10 -15 0 -8 -7 -15 -15 -15
-8 0 -15 -7 -15 -15 0 -12 -13 -15 -55 -15 -42 0 -55 -3 -55 -15 0 -8 -9 -15
-20 -15 -11 0 -20 -7 -20 -15 0 -12 -13 -15 -55 -15 -42 0 -55 3 -55 15 0 12
-17 15 -90 15 l-90 0 0 30 c0 17 -4 30 -10 30 -5 0 -10 20 -10 45 0 25 5 45
10 45 6 0 10 65 10 175 0 110 4 175 10 175 6 0 10 7 10 15 0 10 11 15 35 15
24 0 35 5 35 15 0 13 25 15 165 15 140 0 165 -2 165 -15z"/>
</g>
</svg>
